<svg version="1" xmlns="http://www.w3.org/2000/svg" width="508" height="508" viewBox="0 0 381.000000 381.000000"><path d="M75.5 57.1c-11.2.7-13.8 1.3-25 5.7-18.6 7.2-32.6 7.4-48.8.7-1.6-.7-1.7 4-1.6 95.1.1 105-.1 101.8 6.1 116.2 7 16.1 17.4 28.1 32.3 37 13.3 8.1 25.9 11.5 42 11.4 17.5 0 33.6-5.7 52.7-18.5 10.4-6.9 24.6-20.5 30.1-28.7l3.7-5.5V318h50v-45.8l8.8 8.7c19.8 19.8 39.8 32.2 61.5 38.5 10.9 3.2 16.6 3.9 29.2 3.9 8.3-.1 11.3-.5 17.3-2.8 10.1-3.6 10.5-3.7 20.9-4.1 8.7-.3 12.5.4 24.6 4.3 1.7.5 1.8-3.8 1.5-100.8-.3-101.3-.3-101.4-2.6-109.3-6.2-22.2-19.3-39.2-37-48.1-8.2-4.1-13.3-5.2-24.9-5.4-30.8-.5-60 13.1-88.7 41.3l-9.6 9.4V62h-51v47.2l-4.3-5.8c-13.2-17.9-34-33.6-54.9-41.4-11-4.1-21.2-5.6-32.3-4.9zM121 92.5c15.5 5.7 31.8 18.5 41.9 33l4.1 5.8v117.9l-4.4 6.2c-11.5 16.2-31.1 30.2-47.2 33.9-16.8 3.9-39.2-2.9-52-15.7-3.4-3.4-7.1-8-8.3-10.3-4.9-9.7-5-11.6-5.1-72.8 0-37.3.3-59.1 1-62.2 3.6-16 16.5-28.7 35.5-35.2 8.1-2.7 9.5-2.9 20.5-2.5 5.7.1 11.3.9 14 1.9zm176-.3c11.7 2.2 21.4 9.7 27 21.1 5.6 11.4 5.9 15.6 5.9 76.7 0 47.9-.4 60.3-2.3 67.5-3.2 12.9-11.9 23.6-23.1 28.6-6.1 2.7-18 3.6-26 1.8-3.3-.7-6.5-1.3-7-1.5-5.7-1.1-29.6-13.6-36.3-18.8-6.7-5.4-15.9-13.3-16.9-14.6-.9-1.1-1.2-16.2-1.3-63.1v-61.7l6.1-5.3c17.6-15.6 37.5-26.6 54.9-30.4 7.6-1.6 11.5-1.7 19-.3z"/></svg>